<svg xmlns:xlink="http://www.w3.org/2000/svg">
    <symbol  id="calendar" viewBox="0 0 64 64" xmlns="http://www.w3.org/2000/svg">
        <path d="m56 40.10529v-28.10529c0-2.75684-2.24316-5-5-5h-2v-2c0-1.6543-1.3457-3-3-3s-3 1.3457-3 3v2h-5v-2c0-1.6543-1.3457-3-3-3s-3 1.3457-3 3v2h-6v-2c0-1.6543-1.3457-3-3-3s-3 1.3457-3 3v2h-5v-2c0-1.6543-1.3457-3-3-3s-3 1.3457-3 3v2h-2c-2.75684 0-5 2.24316-5 5v40c0 2.75684 2.24316 5 5 5h33.62347c2.07868 3.58081 5.94617 6 10.37653 6 6.61719 0 12-5.38281 12-12 0-4.83142-2.87561-8.99408-7-10.89471zm-11-35.10529c0-.55176.44824-1 1-1s1 .44824 1 1v6c0 .55176-.44824 1-1 1s-1-.44824-1-1zm-11 0c0-.55176.44824-1 1-1s1 .44824 1 1v6c0 .55176-.44824 1-1 1s-1-.44824-1-1zm-12 0c0-.55176.44824-1 1-1s1 .44824 1 1v6c0 .55176-.44824 1-1 1s-1-.44824-1-1zm-11 0c0-.55176.44824-1 1-1s1 .44824 1 1v6c0 .55176-.44824 1-1 1s-1-.44824-1-1zm-4 4h2v2c0 1.6543 1.3457 3 3 3s3-1.3457 3-3v-2h5v2c0 1.6543 1.3457 3 3 3s3-1.3457 3-3v-2h6v2c0 1.6543 1.3457 3 3 3s3-1.3457 3-3v-2h5v2c0 1.6543 1.3457 3 3 3s3-1.3457 3-3v-2h2c1.6543 0 3 1.3457 3 3v5h-50v-5c0-1.6543 1.3457-3 3-3zm0 46c-1.6543 0-3-1.3457-3-3v-33h50v20.39484c-.96082-.24866-1.96246-.39484-3-.39484-.6828 0-1.34808.07056-2 .1806v-5.1806c0-.55273-.44727-1-1-1h-6c-.55273 0-1 .44727-1 1v6c0 .55273.44727 1 1 1h2.38086c-3.23914 2.15106-5.38086 5.82843-5.38086 10 0 1.40411.25494 2.74664.70001 4zm40-16h-4v-4h4zm4 22c-5.51367 0-10-4.48633-10-10s4.48633-10 10-10 10 4.48633 10 10-4.48633 10-10 10z"/>
        <path d="m52 49.2774v-6.2774h-2v6.2774c-.59528.34644-1 .98413-1 1.7226 0 .10126.01526.19836.02979.29553l-3.65479 2.92322 1.25 1.5625 3.65161-2.92133c.22492.08759.46753.14008.72339.14008 1.10455 0 2-.89545 2-2 0-.73846-.40472-1.37616-1-1.7226z"/>
        <path d="m15 22h-6c-.55273 0-1 .44727-1 1v6c0 .55273.44727 1 1 1h6c.55273 0 1-.44727 1-1v-6c0-.55273-.44727-1-1-1zm-1 6h-4v-4h4z"/>
        <path d="m26 22h-6c-.55273 0-1 .44727-1 1v6c0 .55273.44727 1 1 1h6c.55273 0 1-.44727 1-1v-6c0-.55273-.44727-1-1-1zm-1 6h-4v-4h4z"/>
        <path d="m37 22h-6c-.55273 0-1 .44727-1 1v6c0 .55273.44727 1 1 1h6c.55273 0 1-.44727 1-1v-6c0-.55273-.44727-1-1-1zm-1 6h-4v-4h4z"/>
        <path d="m42 30h6c.55273 0 1-.44727 1-1v-6c0-.55273-.44727-1-1-1h-6c-.55273 0-1 .44727-1 1v6c0 .55273.44727 1 1 1zm1-6h4v4h-4z"/>
        <path d="m15 33h-6c-.55273 0-1 .44727-1 1v6c0 .55273.44727 1 1 1h6c.55273 0 1-.44727 1-1v-6c0-.55273-.44727-1-1-1zm-1 6h-4v-4h4z"/>
        <path d="m26 33h-6c-.55273 0-1 .44727-1 1v6c0 .55273.44727 1 1 1h6c.55273 0 1-.44727 1-1v-6c0-.55273-.44727-1-1-1zm-1 6h-4v-4h4z"/>
        <path d="m37 33h-6c-.55273 0-1 .44727-1 1v6c0 .55273.44727 1 1 1h6c.55273 0 1-.44727 1-1v-6c0-.55273-.44727-1-1-1zm-1 6h-4v-4h4z"/>
        <path d="m15 44h-6c-.55273 0-1 .44727-1 1v6c0 .55273.44727 1 1 1h6c.55273 0 1-.44727 1-1v-6c0-.55273-.44727-1-1-1zm-1 6h-4v-4h4z"/>
        <path d="m26 44h-6c-.55273 0-1 .44727-1 1v6c0 .55273.44727 1 1 1h6c.55273 0 1-.44727 1-1v-6c0-.55273-.44727-1-1-1zm-1 6h-4v-4h4z"/>
        <path d="m37 44h-6c-.55273 0-1 .44727-1 1v6c0 .55273.44727 1 1 1h6c.55273 0 1-.44727 1-1v-6c0-.55273-.44727-1-1-1zm-1 6h-4v-4h4z"/>
    </symbol>
    <symbol  id="edit" viewBox="0 0 64 64" xmlns="http://www.w3.org/2000/svg">
        <path xmlns="http://www.w3.org/2000/svg" d="M52.618,2.631c-3.51-3.508-9.219-3.508-12.729,0L3.827,38.693C3.81,38.71,3.8,38.731,3.785,38.749  c-0.021,0.024-0.039,0.05-0.058,0.076c-0.053,0.074-0.094,0.153-0.125,0.239c-0.009,0.026-0.022,0.049-0.029,0.075  c-0.003,0.01-0.009,0.02-0.012,0.03l-3.535,14.85c-0.016,0.067-0.02,0.135-0.022,0.202C0.004,54.234,0,54.246,0,54.259  c0.001,0.114,0.026,0.225,0.065,0.332c0.009,0.025,0.019,0.047,0.03,0.071c0.049,0.107,0.11,0.21,0.196,0.296  c0.095,0.095,0.207,0.168,0.328,0.218c0.121,0.05,0.25,0.075,0.379,0.075c0.077,0,0.155-0.009,0.231-0.027l14.85-3.535  c0.027-0.006,0.051-0.021,0.077-0.03c0.034-0.011,0.066-0.024,0.099-0.039c0.072-0.033,0.139-0.074,0.201-0.123  c0.024-0.019,0.049-0.033,0.072-0.054c0.008-0.008,0.018-0.012,0.026-0.02l36.063-36.063C56.127,11.85,56.127,6.14,52.618,2.631z   M51.204,4.045c2.488,2.489,2.7,6.397,0.65,9.137l-9.787-9.787C44.808,1.345,48.716,1.557,51.204,4.045z M46.254,18.895l-9.9-9.9  l1.414-1.414l9.9,9.9L46.254,18.895z M4.961,50.288c-0.391-0.391-1.023-0.391-1.414,0L2.79,51.045l2.554-10.728l4.422-0.491  l-0.569,5.122c-0.004,0.038,0.01,0.073,0.01,0.11c0,0.038-0.014,0.072-0.01,0.11c0.004,0.033,0.021,0.06,0.028,0.092  c0.012,0.058,0.029,0.111,0.05,0.165c0.026,0.065,0.057,0.124,0.095,0.181c0.031,0.046,0.062,0.087,0.1,0.127  c0.048,0.051,0.1,0.094,0.157,0.134c0.045,0.031,0.088,0.06,0.138,0.084C9.831,45.982,9.9,46,9.972,46.017  c0.038,0.009,0.069,0.03,0.108,0.035c0.036,0.004,0.072,0.006,0.109,0.006c0,0,0.001,0,0.001,0c0,0,0.001,0,0.001,0h0.001  c0,0,0.001,0,0.001,0c0.036,0,0.073-0.002,0.109-0.006l5.122-0.569l-0.491,4.422L4.204,52.459l0.757-0.757  C5.351,51.312,5.351,50.679,4.961,50.288z M17.511,44.809L39.889,22.43c0.391-0.391,0.391-1.023,0-1.414s-1.023-0.391-1.414,0  L16.097,43.395l-4.773,0.53l0.53-4.773l22.38-22.378c0.391-0.391,0.391-1.023,0-1.414s-1.023-0.391-1.414,0L10.44,37.738  l-3.183,0.354L34.94,10.409l9.9,9.9L17.157,47.992L17.511,44.809z M49.082,16.067l-9.9-9.9l1.415-1.415l9.9,9.9L49.082,16.067z"/>
    </symbol>
    <symbol  id="delete" height="18pt" viewBox="-40 0 427 427.00131" width="18pt" xmlns="http://www.w3.org/2000/svg">
        <path d="m232.398438 154.703125c-5.523438 0-10 4.476563-10 10v189c0 5.519531 4.476562 10 10 10 5.523437 0 10-4.480469 10-10v-189c0-5.523437-4.476563-10-10-10zm0 0"/><path d="m114.398438 154.703125c-5.523438 0-10 4.476563-10 10v189c0 5.519531 4.476562 10 10 10 5.523437 0 10-4.480469 10-10v-189c0-5.523437-4.476563-10-10-10zm0 0"/><path d="m28.398438 127.121094v246.378906c0 14.5625 5.339843 28.238281 14.667968 38.050781 9.285156 9.839844 22.207032 15.425781 35.730469 15.449219h189.203125c13.527344-.023438 26.449219-5.609375 35.730469-15.449219 9.328125-9.8125 14.667969-23.488281 14.667969-38.050781v-246.378906c18.542968-4.921875 30.558593-22.835938 28.078124-41.863282-2.484374-19.023437-18.691406-33.253906-37.878906-33.257812h-51.199218v-12.5c.058593-10.511719-4.097657-20.605469-11.539063-28.03125-7.441406-7.421875-17.550781-11.5546875-28.0625-11.46875h-88.796875c-10.511719-.0859375-20.621094 4.046875-28.0625 11.46875-7.441406 7.425781-11.597656 17.519531-11.539062 28.03125v12.5h-51.199219c-19.1875.003906-35.394531 14.234375-37.878907 33.257812-2.480468 19.027344 9.535157 36.941407 28.078126 41.863282zm239.601562 279.878906h-189.203125c-17.097656 0-30.398437-14.6875-30.398437-33.5v-245.5h250v245.5c0 18.8125-13.300782 33.5-30.398438 33.5zm-158.601562-367.5c-.066407-5.207031 1.980468-10.21875 5.675781-13.894531 3.691406-3.675781 8.714843-5.695313 13.925781-5.605469h88.796875c5.210937-.089844 10.234375 1.929688 13.925781 5.605469 3.695313 3.671875 5.742188 8.6875 5.675782 13.894531v12.5h-128zm-71.199219 32.5h270.398437c9.941406 0 18 8.058594 18 18s-8.058594 18-18 18h-270.398437c-9.941407 0-18-8.058594-18-18s8.058593-18 18-18zm0 0"/><path d="m173.398438 154.703125c-5.523438 0-10 4.476563-10 10v189c0 5.519531 4.476562 10 10 10 5.523437 0 10-4.480469 10-10v-189c0-5.523437-4.476563-10-10-10zm0 0"/>
    </symbol>
</svg>